<?xml version="1.0" encoding="utf-8"?>
<!-- Generator: Adobe Illustrator 24.0.1, SVG Export Plug-In . SVG Version: 6.00 Build 0)  -->
<svg version="1.1" id="Layer_1" xmlns="http://www.w3.org/2000/svg" xmlns:xlink="http://www.w3.org/1999/xlink" x="0px" y="0px"
	 viewBox="0 0 3000 3000" style="enable-background:new 0 0 3000 3000;" xml:space="preserve">
<style type="text/css">
	.st0{fill:#9CD2C9;}
	.st1{fill:#F3E165;}
	.st2{fill:#EA5E5D;}
	.st3{fill:#00537F;}
</style>
<g>
	<rect class="st0" width="3000" height="3000"/>
	<rect x="750" class="st1" width="2250" height="2250"/>
	<rect x="1875" class="st2" width="1125" height="1125"/>
	<g>
		<path class="st3" d="M1016,1630.1c30.6-9,61.2-13.5,98.2-13.5c121.6,0,196.3,63,196.3,172v263.9c0,6.3-3.6,9.9-9.9,9.9h-45
			c-6.3,0-9.9-2.7-11.7-8.1l-7.2-27.9c-5.4-12.6-10.8-12.6-22.5-1.8c-27.9,30.6-68.5,47.7-123.4,47.7c-100,0-155.8-51.3-155.8-136
			c0-84.7,57.6-138.7,163.9-138.7h112.6v-5.4c0-54.9-35.1-84.7-101.8-84.7c-26.1,0-48.6,2.7-70.3,9l-32.4,9.9
			c-6.3,1.8-10.8-0.9-12.6-7.2l-19.8-66.6c-1.8-6.3,0.9-10.8,7.2-12.6L1016,1630.1z M1098.8,1876c-44.1,0-64.8,20.7-64.8,51.3
			c0,35.1,24.3,56.7,67.5,56.7c71.2,0,109.9-35.1,109.9-101.8v-6.3H1098.8z"/>
	</g>
	<g>
		<path class="st3" d="M2360.8,419.4c0,35.6-2.2,56.3-11.9,83c-3.7,10.4,3,15.6,11.9,7.4c23-26.7,54.8-42.2,97.8-42.2
			c97,0,155.6,71.9,155.6,186.7c0,116.3-64.5,188.2-171.1,188.2c-32.6,0-63.7-5.9-92.6-18.5l-65.2-26.7c-4.4-2.2-6.7-5.2-6.7-9.6
			V311.2c0-5.2,3-8.1,8.1-8.1h65.9c5.2,0,8.1,3,8.1,8.1V419.4z M2382.3,754.9c16.3,7.4,38.5,12.6,60.7,12.6
			c56.3,0,89.6-42.2,89.6-113.3c0-70.4-32.6-112.6-85.9-112.6c-59.3,0-86.7,47.4-86.7,110.4v92.6L2382.3,754.9z"/>
	</g>
</g>
</svg>
